<?xml version="1.0" encoding="utf-8"?>
<!-- Generator: Adobe Illustrator 27.4.0, SVG Export Plug-In . SVG Version: 6.00 Build 0)  -->
<svg version="1.1" id="Layer_1" xmlns="http://www.w3.org/2000/svg" xmlns:xlink="http://www.w3.org/1999/xlink" x="0px" y="0px"
	 viewBox="0 0 33 33" style="enable-background:new 0 0 33 33;" xml:space="preserve">
<style type="text/css">
	.st0{fill:#111111;}
	.st1{fill:#FFFFFF;}
	.st2{fill:none;stroke:#FFFFFF;stroke-opacity:0.3;}
	.st3{fill:none;stroke:#FFFFFF;stroke-width:1.25;stroke-linecap:round;stroke-linejoin:round;}
</style>
<path class="st0" d="M5,0h20c2.8,0,5,2.2,5,5v20c0,2.8-2.2,5-5,5H5c-2.8,0-5-2.2-5-5V5C0,2.2,2.2,0,5,0z"/>
<path class="st1" d="M5.1,15.2v-0.9c0.6,0,1.1-0.1,1.3-0.4c0.3-0.3,0.4-0.7,0.4-1.3V11c0-0.6,0.1-1.1,0.2-1.5c0.1-0.4,0.3-0.7,0.6-1
	c0.3-0.2,0.6-0.4,1-0.5s0.9-0.2,1.5-0.2v1.3c-0.4,0-0.8,0.1-1,0.2s-0.4,0.3-0.5,0.6c-0.1,0.3-0.1,0.6-0.1,1v2.1c0,0.3,0,0.6-0.1,0.8
	c-0.1,0.2-0.2,0.5-0.5,0.6s-0.6,0.3-1,0.4C6.3,15.2,5.8,15.2,5.1,15.2z M10.1,22.4c-0.6,0-1-0.1-1.5-0.2c-0.4-0.1-0.8-0.3-1-0.5
	c-0.3-0.2-0.5-0.6-0.6-1c-0.1-0.4-0.2-0.9-0.2-1.5v-1.6c0-0.6-0.1-1-0.4-1.3C6.1,16.1,5.7,16,5.1,16v-0.8c0.7,0,1.3,0.1,1.7,0.2
	c0.4,0.1,0.8,0.2,1,0.4c0.2,0.2,0.4,0.4,0.5,0.6c0.1,0.2,0.1,0.5,0.1,0.8v2.1c0,0.4,0,0.8,0.1,1c0.1,0.3,0.3,0.5,0.5,0.6
	c0.2,0.1,0.6,0.2,1,0.2V22.4z M5.1,16v-1.6h1.6V16H5.1z M15.9,18.4L15.8,19c-0.1,0.5-0.2,0.9-0.3,1.4c-0.1,0.5-0.3,1-0.4,1.4
	c-0.1,0.4-0.3,0.8-0.3,1h-1.2c0-0.2,0.1-0.6,0.2-1c0.1-0.4,0.2-0.8,0.3-1.3c0.1-0.5,0.1-1,0.2-1.5l0.1-0.6H15.9z M15,13.8
	c-0.3,0-0.6-0.1-0.8-0.3c-0.2-0.2-0.3-0.5-0.3-0.8s0.1-0.6,0.3-0.8c0.2-0.2,0.5-0.3,0.8-0.3c0.3,0,0.6,0.1,0.8,0.3
	c0.2,0.2,0.3,0.5,0.3,0.8c0,0.2-0.1,0.4-0.2,0.6c-0.1,0.2-0.2,0.3-0.4,0.4C15.4,13.7,15.2,13.8,15,13.8z M24.6,15.1V16
	c-0.6,0-1.1,0.1-1.3,0.4c-0.3,0.3-0.4,0.7-0.4,1.3v1.6c0,0.6-0.1,1.1-0.2,1.5c-0.1,0.4-0.3,0.7-0.6,1c-0.3,0.2-0.6,0.4-1,0.5
	c-0.4,0.1-0.9,0.2-1.5,0.2v-1.3c0.4,0,0.8-0.1,1-0.2c0.2-0.1,0.4-0.3,0.5-0.6c0.1-0.3,0.1-0.6,0.1-1v-2.1c0-0.3,0-0.6,0.1-0.8
	c0.1-0.2,0.2-0.5,0.5-0.6c0.2-0.2,0.6-0.3,1-0.4C23.4,15.2,24,15.1,24.6,15.1z M19.6,7.9c0.6,0,1,0.1,1.5,0.2c0.4,0.1,0.8,0.3,1,0.5
	c0.3,0.2,0.5,0.6,0.6,1c0.1,0.4,0.2,0.9,0.2,1.5v1.6c0,0.6,0.1,1,0.4,1.3c0.3,0.3,0.7,0.4,1.3,0.4v0.9c-0.7,0-1.3-0.1-1.7-0.2
	c-0.4-0.1-0.8-0.2-1-0.4c-0.2-0.2-0.4-0.4-0.5-0.6c-0.1-0.2-0.1-0.5-0.1-0.8v-2.1c0-0.4,0-0.8-0.1-1c-0.1-0.3-0.3-0.5-0.5-0.6
	s-0.6-0.2-1-0.2V7.9z M24.6,14.4V16h-1.6v-1.6H24.6z"/>
<path class="st0" d="M17.7,18.3v11.3c0,1.3,3.2,2.4,7.3,2.4s7.3-1.1,7.3-2.4V18.3"/>
<path class="st2" d="M5,0.5h20c2.5,0,4.5,2,4.5,4.5v20c0,2.5-2,4.5-4.5,4.5H5c-2.5,0-4.5-2-4.5-4.5V5C0.5,2.5,2.5,0.5,5,0.5z"/>
<path class="st0" d="M17.7,18.3c0-1.3,3.3-2.4,7.3-2.4s7.3,1.1,7.3,2.4v11.3c0,1.3-3.2,2.4-7.3,2.4s-7.3-1.1-7.3-2.4V18.3z"/>
<path class="st3" d="M32.3,18.3c0,1.3-3.3,2.4-7.3,2.4s-7.3-1.1-7.3-2.4 M32.3,18.3c0-1.3-3.3-2.4-7.3-2.4s-7.3,1.1-7.3,2.4
	 M32.3,18.3v11.3c0,1.3-3.2,2.4-7.3,2.4s-7.3-1.1-7.3-2.4V18.3 M32.3,24c0,1.3-3.2,2.4-7.3,2.4s-7.3-1.1-7.3-2.4"/>
</svg>
