<?xml version="1.0" encoding="utf-8"?>
<!-- Generator: Adobe Illustrator 27.4.0, SVG Export Plug-In . SVG Version: 6.00 Build 0)  -->
<svg version="1.1" id="Layer_1" xmlns="http://www.w3.org/2000/svg" xmlns:xlink="http://www.w3.org/1999/xlink" x="0px" y="0px"
	 viewBox="0 0 33 33" style="enable-background:new 0 0 33 33;" xml:space="preserve">
<style type="text/css">
	.st0{fill:#FFD7CB;}
	.st1{fill:#FB6F6F;stroke:#A91414;stroke-width:1.15;}
	.st2{fill:none;stroke:#A91414;}
	.st3{fill:none;stroke:#000000;stroke-width:1.25;stroke-linecap:round;stroke-linejoin:round;}
</style>
<path class="st0" d="M5,0.5h20c2.5,0,4.5,2,4.5,4.5v20c0,2.5-2,4.5-4.5,4.5H5c-2.5,0-4.5-2-4.5-4.5V5C0.5,2.5,2.5,0.5,5,0.5z"/>
<circle class="st1" cx="17.5" cy="21.5" r="4.5"/>
<path class="st1" d="M18.2,4.8l6.4,1.6C24.9,6.5,25,6.7,25,7l-1.6,6.4c-0.1,0.3-0.3,0.4-0.6,0.4l-6.4-1.6c-0.3-0.1-0.4-0.3-0.4-0.6
	l1.6-6.4C17.6,4.9,17.9,4.7,18.2,4.8z"/>
<path class="st1" d="M7,9c0.1-0.4,0.5-0.5,0.8-0.3l6.6,5.6c0.3,0.2,0.2,0.7-0.2,0.9l-8.1,3c-0.4,0.1-0.7-0.2-0.7-0.6L7,9z"/>
<path class="st0" d="M17.7,18.3v11.3c0,1.3,3.2,2.4,7.3,2.4s7.3-1.1,7.3-2.4V18.3"/>
<path class="st2" d="M5,0.5h20c2.5,0,4.5,2,4.5,4.5v20c0,2.5-2,4.5-4.5,4.5H5c-2.5,0-4.5-2-4.5-4.5V5C0.5,2.5,2.5,0.5,5,0.5z"/>
<path class="st0" d="M17.7,18.3c0-1.3,3.3-2.4,7.3-2.4s7.3,1.1,7.3,2.4v11.3c0,1.3-3.2,2.4-7.3,2.4s-7.3-1.1-7.3-2.4V18.3z"/>
<path class="st3" d="M32.3,18.3c0,1.3-3.3,2.4-7.3,2.4s-7.3-1.1-7.3-2.4 M32.3,18.3c0-1.3-3.3-2.4-7.3-2.4s-7.3,1.1-7.3,2.4
	 M32.3,18.3v11.3c0,1.3-3.2,2.4-7.3,2.4s-7.3-1.1-7.3-2.4V18.3 M32.3,24c0,1.3-3.2,2.4-7.3,2.4s-7.3-1.1-7.3-2.4"/>
</svg>
