<svg width="32" height="32" viewBox="0 0 32 32" fill="none" xmlns="http://www.w3.org/2000/svg">
<g clip-path="url(#clip0_24_11859)">
<path d="M27.6163 4.23396C24.6448 -0.0188945 18.776 -1.27947 14.5328 1.42396L7.08228 6.17368C6.07524 6.80684 5.21142 7.6432 4.54607 8.62927C3.88072 9.61534 3.42848 10.7294 3.21828 11.9002C2.86289 13.8721 3.17538 15.9062 4.10628 17.6805C3.4683 18.6482 3.03315 19.7351 2.82713 20.8757C2.61491 22.07 2.64327 23.2946 2.91056 24.4778C3.17785 25.661 3.67869 26.7789 4.3837 27.766C7.35513 32.0194 13.2243 33.2802 17.4668 30.576L24.9191 25.8262C25.9259 25.193 26.7895 24.3566 27.4545 23.3705C28.1196 22.3844 28.5715 21.2704 28.7814 20.0997C29.1374 18.1279 28.8257 16.0938 27.8957 14.3191C28.5333 13.3514 28.9681 12.2646 29.174 11.1242C29.3865 9.92998 29.3583 8.7053 29.091 7.52209C28.8238 6.33887 28.3229 5.22096 27.6177 4.23396" fill="#FF3E00"/>
<path d="M13.8049 28.1663C12.6321 28.4711 11.3941 28.4088 10.2579 27.9876C9.1217 27.5664 8.14213 26.8067 7.45143 25.8111C7.02753 25.2177 6.72638 24.5455 6.56565 23.8341C6.40492 23.1227 6.38785 22.3864 6.51543 21.6683C6.55861 21.4325 6.61809 21.2001 6.69343 20.9726L6.83372 20.544L7.21572 20.8243C8.09712 21.4723 9.08271 21.9651 10.13 22.2814L10.4069 22.3654L10.3814 22.642C10.3478 23.035 10.4544 23.4272 10.6823 23.7491C10.8903 24.0493 11.1854 24.2783 11.5277 24.4053C11.8701 24.5323 12.2432 24.5511 12.5966 24.4591C12.7583 24.4161 12.9124 24.3487 13.0537 24.2591L20.5057 19.5089C20.6881 19.3941 20.8446 19.2425 20.9651 19.0639C21.0857 18.8853 21.1677 18.6835 21.206 18.4714C21.2442 18.2549 21.239 18.033 21.1905 17.8186C21.142 17.6042 21.0513 17.4016 20.9237 17.2226C20.7157 16.9225 20.4206 16.6934 20.0783 16.5663C19.736 16.4393 19.3629 16.4203 19.0094 16.512C18.8478 16.555 18.6936 16.6225 18.5523 16.712L15.7086 18.5249C15.2406 18.8222 14.7299 19.0463 14.1943 19.1894C13.0215 19.4943 11.7835 19.432 10.6473 19.0108C9.5111 18.5896 8.53153 17.8299 7.84086 16.8343C7.41683 16.2409 7.11559 15.5687 6.95481 14.8573C6.79403 14.1459 6.77695 13.4095 6.90457 12.6914C7.03121 11.9874 7.3034 11.3175 7.70373 10.7247C8.10405 10.1319 8.6237 9.62909 9.22943 9.24857L16.6823 4.49914C17.1502 4.2014 17.6608 3.977 18.1966 3.83371C19.3693 3.52887 20.6074 3.59125 21.7436 4.01241C22.8797 4.43358 23.8593 5.19326 24.55 6.18886C24.974 6.78232 25.2752 7.45446 25.4359 8.16586C25.5967 8.87727 25.6138 9.61361 25.4863 10.3317C25.4427 10.5674 25.3832 10.7998 25.308 11.0274L25.1677 11.456L24.786 11.1763C23.9047 10.5281 22.919 10.0353 21.8717 9.71914L21.5946 9.63514L21.6203 9.35857C21.6538 8.96535 21.5474 8.57293 21.3197 8.25057C21.1117 7.95047 20.8166 7.72145 20.4743 7.59447C20.1319 7.4675 19.7588 7.44868 19.4054 7.54057C19.2438 7.58356 19.0896 7.65101 18.9483 7.74057L11.4943 12.4911C11.3119 12.6059 11.1555 12.7573 11.0351 12.9359C10.9146 13.1145 10.8327 13.3163 10.7946 13.5283C10.7562 13.7448 10.7613 13.9667 10.8097 14.1812C10.858 14.3957 10.9487 14.5984 11.0763 14.7774C11.2843 15.0775 11.5794 15.3065 11.9217 15.4336C12.2641 15.5607 12.6371 15.5797 12.9906 15.488C13.1522 15.4449 13.3064 15.3775 13.4477 15.288L16.2911 13.476C16.7589 13.1782 17.2696 12.9538 17.8054 12.8109C18.9781 12.506 20.2162 12.5684 21.3523 12.9895C22.4884 13.4107 23.468 14.1704 24.1586 15.166C24.5826 15.7594 24.8838 16.4316 25.0446 17.143C25.2054 17.8544 25.2225 18.5908 25.0949 19.3089C24.9685 20.0129 24.6966 20.6828 24.2966 21.2758C23.8967 21.8688 23.3774 22.3719 22.772 22.7529L15.3191 27.5009C14.8513 27.7986 14.3406 28.0231 13.8049 28.1663Z" fill="white"/>
</g>
<defs>
<clipPath id="clip0_24_11859">
<rect width="26.6354" height="32" fill="white" transform="translate(2.68228)"/>
</clipPath>
</defs>
</svg>
