<svg width="32" height="22" viewBox="0 0 32 22" fill="none" xmlns="http://www.w3.org/2000/svg">
<path d="M17.9523 21.6668H29.848C30.2259 21.6669 30.597 21.5683 30.9243 21.3811C31.2515 21.1938 31.5232 20.9245 31.712 20.6001C31.9008 20.2758 32.0002 19.9079 32 19.5334C31.9998 19.1589 31.9002 18.7911 31.711 18.4669L23.7222 4.75266C23.5334 4.42839 23.2618 4.1591 22.9346 3.97186C22.6075 3.78466 22.2364 3.68606 21.8586 3.68606C21.4809 3.68606 21.1097 3.78466 20.7826 3.97186C20.4555 4.1591 20.1838 4.42839 19.995 4.75266L17.9523 8.26164L13.9584 1.39991C13.7695 1.07568 13.4977 0.80642 13.1705 0.61922C12.8432 0.432056 12.4721 0.333496 12.0943 0.333496C11.7164 0.333496 11.3453 0.432056 11.0181 0.61922C10.6908 0.80642 10.4191 1.07568 10.2301 1.39991L0.288942 18.4669C0.0998197 18.7911 0.000164599 19.1589 2.03726e-07 19.5334C-0.000164192 19.9079 0.0991677 20.2758 0.288005 20.6001C0.476843 20.9245 0.748526 21.1938 1.07573 21.3811C1.40294 21.5683 1.77413 21.6669 2.15196 21.6668H9.61913C12.5777 21.6668 14.7595 20.3788 16.2608 17.866L19.9057 11.6098L21.858 8.26164L27.7172 18.3187H19.9057L17.9523 21.6668ZM9.49739 18.3153L4.28626 18.3141L12.0977 4.90544L15.9954 11.6098L13.3857 16.0908C12.3887 17.7212 11.2561 18.3153 9.49739 18.3153Z" fill="#00DC82"/>
</svg>
